<mxfile host="app.diagrams.net" modified="2024-04-08T05:23:51.889Z" agent="Mozilla/5.0 (Windows NT 10.0; Win64; x64; rv:124.0) Gecko/20100101 Firefox/124.0" etag="t2v0rVl44vWuz_2jFwCR" version="22.1.21" type="device">
  <diagram name="Lapa-1" id="N8R-Ntbeel2ukizbG50p">
    <mxGraphModel dx="1434" dy="822" grid="1" gridSize="10" guides="1" tooltips="1" connect="1" arrows="1" fold="1" page="1" pageScale="1" pageWidth="850" pageHeight="1100" math="0" shadow="0">
      <root>
        <mxCell id="0" />
        <mxCell id="1" parent="0" />
        <mxCell id="gb-hBEXPWkhJlFXkVDQy-3" value="Datub훮ze (Blogs)" style="rounded=0;whiteSpace=wrap;html=1;verticalAlign=top;" vertex="1" parent="1">
          <mxGeometry x="40" y="50" width="780" height="600" as="geometry" />
        </mxCell>
        <mxCell id="gb-hBEXPWkhJlFXkVDQy-4" value="Tabula 1 (Lietot훮ji)" style="rounded=0;whiteSpace=wrap;html=1;verticalAlign=top;" vertex="1" parent="1">
          <mxGeometry x="50" y="80" width="310" height="560" as="geometry" />
        </mxCell>
        <mxCell id="gb-hBEXPWkhJlFXkVDQy-5" value="Tabula n..." style="rounded=0;whiteSpace=wrap;html=1;verticalAlign=top;" vertex="1" parent="1">
          <mxGeometry x="720" y="80" width="100" height="560" as="geometry" />
        </mxCell>
        <mxCell id="gb-hBEXPWkhJlFXkVDQy-6" value="Tabula 2 (Ieraksti)" style="rounded=0;whiteSpace=wrap;html=1;verticalAlign=top;" vertex="1" parent="1">
          <mxGeometry x="370" y="80" width="340" height="560" as="geometry" />
        </mxCell>
        <mxCell id="gb-hBEXPWkhJlFXkVDQy-7" value="ID" style="rounded=0;whiteSpace=wrap;html=1;" vertex="1" parent="1">
          <mxGeometry x="50" y="110" width="70" height="40" as="geometry" />
        </mxCell>
        <mxCell id="gb-hBEXPWkhJlFXkVDQy-8" value="Lietot훮jv훮rds" style="rounded=0;whiteSpace=wrap;html=1;" vertex="1" parent="1">
          <mxGeometry x="120" y="110" width="80" height="40" as="geometry" />
        </mxCell>
        <mxCell id="gb-hBEXPWkhJlFXkVDQy-9" value="Parole" style="rounded=0;whiteSpace=wrap;html=1;" vertex="1" parent="1">
          <mxGeometry x="200" y="110" width="80" height="40" as="geometry" />
        </mxCell>
        <mxCell id="gb-hBEXPWkhJlFXkVDQy-10" value="E-pasts" style="rounded=0;whiteSpace=wrap;html=1;" vertex="1" parent="1">
          <mxGeometry x="280" y="110" width="80" height="40" as="geometry" />
        </mxCell>
        <mxCell id="gb-hBEXPWkhJlFXkVDQy-11" value="ID" style="rounded=0;whiteSpace=wrap;html=1;" vertex="1" parent="1">
          <mxGeometry x="370" y="110" width="70" height="40" as="geometry" />
        </mxCell>
        <mxCell id="gb-hBEXPWkhJlFXkVDQy-12" value="LietotajsID" style="rounded=0;whiteSpace=wrap;html=1;" vertex="1" parent="1">
          <mxGeometry x="440" y="110" width="70" height="40" as="geometry" />
        </mxCell>
        <mxCell id="gb-hBEXPWkhJlFXkVDQy-13" value="Virsraksts" style="rounded=0;whiteSpace=wrap;html=1;" vertex="1" parent="1">
          <mxGeometry x="510" y="110" width="70" height="40" as="geometry" />
        </mxCell>
        <mxCell id="gb-hBEXPWkhJlFXkVDQy-15" value="Pamatteksts" style="rounded=0;whiteSpace=wrap;html=1;" vertex="1" parent="1">
          <mxGeometry x="580" y="110" width="70" height="40" as="geometry" />
        </mxCell>
        <mxCell id="gb-hBEXPWkhJlFXkVDQy-18" value="Redzams" style="rounded=0;whiteSpace=wrap;html=1;" vertex="1" parent="1">
          <mxGeometry x="640" y="110" width="70" height="40" as="geometry" />
        </mxCell>
        <mxCell id="gb-hBEXPWkhJlFXkVDQy-19" value="1, Lietotajs, *****, mail@mail.com" style="rounded=0;whiteSpace=wrap;html=1;" vertex="1" parent="1">
          <mxGeometry x="50" y="160" width="310" height="40" as="geometry" />
        </mxCell>
        <mxCell id="gb-hBEXPWkhJlFXkVDQy-20" value="2, Lietotajs2, *****, mail@mail.com" style="rounded=0;whiteSpace=wrap;html=1;" vertex="1" parent="1">
          <mxGeometry x="50" y="200" width="310" height="40" as="geometry" />
        </mxCell>
        <mxCell id="gb-hBEXPWkhJlFXkVDQy-21" value="3, Lietotajs2, *****, mail@mail.com" style="rounded=0;whiteSpace=wrap;html=1;" vertex="1" parent="1">
          <mxGeometry x="50" y="240" width="310" height="40" as="geometry" />
        </mxCell>
        <mxCell id="gb-hBEXPWkhJlFXkVDQy-26" value="Tabula" style="swimlane;fontStyle=0;childLayout=stackLayout;horizontal=1;startSize=26;fillColor=none;horizontalStack=0;resizeParent=1;resizeParentMax=0;resizeLast=0;collapsible=1;marginBottom=0;whiteSpace=wrap;html=1;" vertex="1" parent="1">
          <mxGeometry x="40" y="670" width="190" height="104" as="geometry" />
        </mxCell>
        <mxCell id="gb-hBEXPWkhJlFXkVDQy-27" value="+ Kolona: Tips" style="text;strokeColor=none;fillColor=none;align=left;verticalAlign=top;spacingLeft=4;spacingRight=4;overflow=hidden;rotatable=0;points=[[0,0.5],[1,0.5]];portConstraint=eastwest;whiteSpace=wrap;html=1;" vertex="1" parent="gb-hBEXPWkhJlFXkVDQy-26">
          <mxGeometry y="26" width="190" height="26" as="geometry" />
        </mxCell>
        <mxCell id="gb-hBEXPWkhJlFXkVDQy-28" value="+ field: type" style="text;strokeColor=none;fillColor=none;align=left;verticalAlign=top;spacingLeft=4;spacingRight=4;overflow=hidden;rotatable=0;points=[[0,0.5],[1,0.5]];portConstraint=eastwest;whiteSpace=wrap;html=1;" vertex="1" parent="gb-hBEXPWkhJlFXkVDQy-26">
          <mxGeometry y="52" width="190" height="26" as="geometry" />
        </mxCell>
        <mxCell id="gb-hBEXPWkhJlFXkVDQy-29" value="+ LietotajsID: int" style="text;strokeColor=none;fillColor=none;align=left;verticalAlign=top;spacingLeft=4;spacingRight=4;overflow=hidden;rotatable=0;points=[[0,0.5],[1,0.5]];portConstraint=eastwest;whiteSpace=wrap;html=1;" vertex="1" parent="gb-hBEXPWkhJlFXkVDQy-26">
          <mxGeometry y="78" width="190" height="26" as="geometry" />
        </mxCell>
        <mxCell id="gb-hBEXPWkhJlFXkVDQy-30" value="Lietotajs" style="swimlane;fontStyle=0;childLayout=stackLayout;horizontal=1;startSize=26;fillColor=none;horizontalStack=0;resizeParent=1;resizeParentMax=0;resizeLast=0;collapsible=1;marginBottom=0;whiteSpace=wrap;html=1;" vertex="1" parent="1">
          <mxGeometry x="310" y="670" width="190" height="104" as="geometry" />
        </mxCell>
        <mxCell id="gb-hBEXPWkhJlFXkVDQy-31" value="+ ID: Int" style="text;strokeColor=none;fillColor=none;align=left;verticalAlign=top;spacingLeft=4;spacingRight=4;overflow=hidden;rotatable=0;points=[[0,0.5],[1,0.5]];portConstraint=eastwest;whiteSpace=wrap;html=1;" vertex="1" parent="gb-hBEXPWkhJlFXkVDQy-30">
          <mxGeometry y="26" width="190" height="26" as="geometry" />
        </mxCell>
        <mxCell id="gb-hBEXPWkhJlFXkVDQy-32" value="+ Lietotajvards: str" style="text;strokeColor=none;fillColor=none;align=left;verticalAlign=top;spacingLeft=4;spacingRight=4;overflow=hidden;rotatable=0;points=[[0,0.5],[1,0.5]];portConstraint=eastwest;whiteSpace=wrap;html=1;" vertex="1" parent="gb-hBEXPWkhJlFXkVDQy-30">
          <mxGeometry y="52" width="190" height="26" as="geometry" />
        </mxCell>
        <mxCell id="gb-hBEXPWkhJlFXkVDQy-33" value="...." style="text;strokeColor=none;fillColor=none;align=left;verticalAlign=top;spacingLeft=4;spacingRight=4;overflow=hidden;rotatable=0;points=[[0,0.5],[1,0.5]];portConstraint=eastwest;whiteSpace=wrap;html=1;" vertex="1" parent="gb-hBEXPWkhJlFXkVDQy-30">
          <mxGeometry y="78" width="190" height="26" as="geometry" />
        </mxCell>
        <mxCell id="gb-hBEXPWkhJlFXkVDQy-35" style="edgeStyle=orthogonalEdgeStyle;rounded=0;orthogonalLoop=1;jettySize=auto;html=1;exitX=1;exitY=0.5;exitDx=0;exitDy=0;entryX=0;entryY=0.5;entryDx=0;entryDy=0;" edge="1" parent="1" source="gb-hBEXPWkhJlFXkVDQy-29" target="gb-hBEXPWkhJlFXkVDQy-31">
          <mxGeometry relative="1" as="geometry" />
        </mxCell>
      </root>
    </mxGraphModel>
  </diagram>
</mxfile>
